<mxfile host="65bd71144e" modified="2021-01-27T02:43:05.676Z" agent="5.0 (Macintosh; Intel Mac OS X 10_15_6) AppleWebKit/537.36 (KHTML, like Gecko) Code/1.52.1 Chrome/83.0.4103.122 Electron/9.3.5 Safari/537.36" etag="8_b25nq2whcBBepS6IfX" version="13.10.0" type="embed" pages="2">
    <diagram id="6hGFLwfOUW9BJ-s0fimq" name="WorkManager 类关系">
        <mxGraphModel dx="943" dy="535" grid="1" gridSize="10" guides="1" tooltips="1" connect="1" arrows="1" fold="1" page="1" pageScale="1" pageWidth="827" pageHeight="1169" math="0" shadow="0">
            <root>
                <mxCell id="0"/>
                <mxCell id="1" parent="0"/>
                <mxCell id="15" style="edgeStyle=orthogonalEdgeStyle;rounded=0;orthogonalLoop=1;jettySize=auto;html=1;" parent="1" source="6" edge="1">
                    <mxGeometry relative="1" as="geometry">
                        <mxPoint x="170" y="100" as="targetPoint"/>
                    </mxGeometry>
                </mxCell>
                <mxCell id="6" value="PeriodicWorkRequest" style="swimlane;fontStyle=1;align=center;verticalAlign=top;childLayout=stackLayout;horizontal=1;startSize=26;horizontalStack=0;resizeParent=1;resizeParentMax=0;resizeLast=0;collapsible=1;marginBottom=0;" parent="1" vertex="1">
                    <mxGeometry x="10" y="190" width="160" height="34" as="geometry"/>
                </mxCell>
                <mxCell id="8" value="" style="line;strokeWidth=1;fillColor=none;align=left;verticalAlign=middle;spacingTop=-1;spacingLeft=3;spacingRight=3;rotatable=0;labelPosition=right;points=[];portConstraint=eastwest;" parent="6" vertex="1">
                    <mxGeometry y="26" width="160" height="8" as="geometry"/>
                </mxCell>
                <mxCell id="17" style="edgeStyle=orthogonalEdgeStyle;rounded=0;orthogonalLoop=1;jettySize=auto;html=1;" parent="1" source="10" edge="1">
                    <mxGeometry relative="1" as="geometry">
                        <mxPoint x="240" y="100" as="targetPoint"/>
                    </mxGeometry>
                </mxCell>
                <mxCell id="10" value="OneTimeWorkRequest" style="swimlane;fontStyle=1;align=center;verticalAlign=top;childLayout=stackLayout;horizontal=1;startSize=26;horizontalStack=0;resizeParent=1;resizeParentMax=0;resizeLast=0;collapsible=1;marginBottom=0;" parent="1" vertex="1">
                    <mxGeometry x="230" y="190" width="160" height="34" as="geometry"/>
                </mxCell>
                <mxCell id="12" value="" style="line;strokeWidth=1;fillColor=none;align=left;verticalAlign=middle;spacingTop=-1;spacingLeft=3;spacingRight=3;rotatable=0;labelPosition=right;points=[];portConstraint=eastwest;" parent="10" vertex="1">
                    <mxGeometry y="26" width="160" height="8" as="geometry"/>
                </mxCell>
                <mxCell id="2" value="WorkRequest" style="swimlane;fontStyle=1;align=center;verticalAlign=top;childLayout=stackLayout;horizontal=1;startSize=26;horizontalStack=0;resizeParent=1;resizeParentMax=0;resizeLast=0;collapsible=1;marginBottom=0;" parent="1" vertex="1">
                    <mxGeometry x="120" y="10" width="160" height="86" as="geometry"/>
                </mxCell>
                <mxCell id="3" value="UUID mId" style="text;strokeColor=none;fillColor=none;align=left;verticalAlign=top;spacingLeft=4;spacingRight=4;overflow=hidden;rotatable=0;points=[[0,0.5],[1,0.5]];portConstraint=eastwest;" parent="2" vertex="1">
                    <mxGeometry y="26" width="160" height="26" as="geometry"/>
                </mxCell>
                <mxCell id="4" value="" style="line;strokeWidth=1;fillColor=none;align=left;verticalAlign=middle;spacingTop=-1;spacingLeft=3;spacingRight=3;rotatable=0;labelPosition=right;points=[];portConstraint=eastwest;" parent="2" vertex="1">
                    <mxGeometry y="52" width="160" height="8" as="geometry"/>
                </mxCell>
                <mxCell id="5" value="Set&lt;String&gt; mTags;" style="text;strokeColor=none;fillColor=none;align=left;verticalAlign=top;spacingLeft=4;spacingRight=4;overflow=hidden;rotatable=0;points=[[0,0.5],[1,0.5]];portConstraint=eastwest;" parent="2" vertex="1">
                    <mxGeometry y="60" width="160" height="26" as="geometry"/>
                </mxCell>
                <mxCell id="26" style="edgeStyle=orthogonalEdgeStyle;rounded=0;orthogonalLoop=1;jettySize=auto;html=1;" parent="1" source="22" edge="1">
                    <mxGeometry relative="1" as="geometry">
                        <mxPoint x="336" y="380" as="targetPoint"/>
                    </mxGeometry>
                </mxCell>
                <mxCell id="18" value="ListenableWorker" style="swimlane;fontStyle=1;align=center;verticalAlign=top;childLayout=stackLayout;horizontal=1;startSize=26;horizontalStack=0;resizeParent=1;resizeParentMax=0;resizeLast=0;collapsible=1;marginBottom=0;" parent="1" vertex="1">
                    <mxGeometry x="286" y="290" width="160" height="86" as="geometry"/>
                </mxCell>
                <mxCell id="19" value="+ field: type" style="text;strokeColor=none;fillColor=none;align=left;verticalAlign=top;spacingLeft=4;spacingRight=4;overflow=hidden;rotatable=0;points=[[0,0.5],[1,0.5]];portConstraint=eastwest;" parent="18" vertex="1">
                    <mxGeometry y="26" width="160" height="26" as="geometry"/>
                </mxCell>
                <mxCell id="20" value="" style="line;strokeWidth=1;fillColor=none;align=left;verticalAlign=middle;spacingTop=-1;spacingLeft=3;spacingRight=3;rotatable=0;labelPosition=right;points=[];portConstraint=eastwest;" parent="18" vertex="1">
                    <mxGeometry y="52" width="160" height="8" as="geometry"/>
                </mxCell>
                <mxCell id="21" value="+ method(type): type" style="text;strokeColor=none;fillColor=none;align=left;verticalAlign=top;spacingLeft=4;spacingRight=4;overflow=hidden;rotatable=0;points=[[0,0.5],[1,0.5]];portConstraint=eastwest;" parent="18" vertex="1">
                    <mxGeometry y="60" width="160" height="26" as="geometry"/>
                </mxCell>
                <mxCell id="27" value="«interface»&lt;br&gt;&lt;pre style=&quot;background-color: #2b2b2b ; color: #a9b7c6 ; font-family: &amp;#34;menlo&amp;#34; ; font-size: 12.0pt&quot;&gt;WorkConstraintsCallback&lt;/pre&gt;" style="html=1;" parent="1" vertex="1">
                    <mxGeometry x="480" y="80" width="240" height="120" as="geometry"/>
                </mxCell>
                <mxCell id="28" style="edgeStyle=orthogonalEdgeStyle;rounded=0;orthogonalLoop=1;jettySize=auto;html=1;exitX=1;exitY=0.5;exitDx=0;exitDy=0;entryX=0.593;entryY=1.015;entryDx=0;entryDy=0;entryPerimeter=0;" parent="1" source="19" target="27" edge="1">
                    <mxGeometry relative="1" as="geometry"/>
                </mxCell>
                <mxCell id="33" style="edgeStyle=orthogonalEdgeStyle;rounded=0;orthogonalLoop=1;jettySize=auto;html=1;entryX=0.59;entryY=1.031;entryDx=0;entryDy=0;entryPerimeter=0;" parent="1" source="29" target="21" edge="1">
                    <mxGeometry relative="1" as="geometry">
                        <mxPoint x="370" y="390" as="targetPoint"/>
                    </mxGeometry>
                </mxCell>
                <mxCell id="22" value="ConstraintTrackingWorker" style="swimlane;fontStyle=1;align=center;verticalAlign=top;childLayout=stackLayout;horizontal=1;startSize=26;horizontalStack=0;resizeParent=1;resizeParentMax=0;resizeLast=0;collapsible=1;marginBottom=0;" parent="1" vertex="1">
                    <mxGeometry x="126" y="440" width="160" height="86" as="geometry"/>
                </mxCell>
                <mxCell id="23" value="+ field: type" style="text;strokeColor=none;fillColor=none;align=left;verticalAlign=top;spacingLeft=4;spacingRight=4;overflow=hidden;rotatable=0;points=[[0,0.5],[1,0.5]];portConstraint=eastwest;" parent="22" vertex="1">
                    <mxGeometry y="26" width="160" height="26" as="geometry"/>
                </mxCell>
                <mxCell id="24" value="" style="line;strokeWidth=1;fillColor=none;align=left;verticalAlign=middle;spacingTop=-1;spacingLeft=3;spacingRight=3;rotatable=0;labelPosition=right;points=[];portConstraint=eastwest;" parent="22" vertex="1">
                    <mxGeometry y="52" width="160" height="8" as="geometry"/>
                </mxCell>
                <mxCell id="25" value="+ method(type): type" style="text;strokeColor=none;fillColor=none;align=left;verticalAlign=top;spacingLeft=4;spacingRight=4;overflow=hidden;rotatable=0;points=[[0,0.5],[1,0.5]];portConstraint=eastwest;" parent="22" vertex="1">
                    <mxGeometry y="60" width="160" height="26" as="geometry"/>
                </mxCell>
                <mxCell id="29" value="Work" style="swimlane;fontStyle=1;align=center;verticalAlign=top;childLayout=stackLayout;horizontal=1;startSize=26;horizontalStack=0;resizeParent=1;resizeParentMax=0;resizeLast=0;collapsible=1;marginBottom=0;" parent="1" vertex="1">
                    <mxGeometry x="400" y="460" width="160" height="86" as="geometry"/>
                </mxCell>
                <mxCell id="30" value="+ field: type" style="text;strokeColor=none;fillColor=none;align=left;verticalAlign=top;spacingLeft=4;spacingRight=4;overflow=hidden;rotatable=0;points=[[0,0.5],[1,0.5]];portConstraint=eastwest;" parent="29" vertex="1">
                    <mxGeometry y="26" width="160" height="26" as="geometry"/>
                </mxCell>
                <mxCell id="31" value="" style="line;strokeWidth=1;fillColor=none;align=left;verticalAlign=middle;spacingTop=-1;spacingLeft=3;spacingRight=3;rotatable=0;labelPosition=right;points=[];portConstraint=eastwest;" parent="29" vertex="1">
                    <mxGeometry y="52" width="160" height="8" as="geometry"/>
                </mxCell>
                <mxCell id="32" value="+ method(type): type" style="text;strokeColor=none;fillColor=none;align=left;verticalAlign=top;spacingLeft=4;spacingRight=4;overflow=hidden;rotatable=0;points=[[0,0.5],[1,0.5]];portConstraint=eastwest;" parent="29" vertex="1">
                    <mxGeometry y="60" width="160" height="26" as="geometry"/>
                </mxCell>
                <mxCell id="47" style="edgeStyle=orthogonalEdgeStyle;rounded=0;orthogonalLoop=1;jettySize=auto;html=1;exitX=0.5;exitY=0;exitDx=0;exitDy=0;" parent="1" source="38" target="34" edge="1">
                    <mxGeometry relative="1" as="geometry"/>
                </mxCell>
                <mxCell id="38" value="WorkManagerImpl" style="swimlane;fontStyle=1;align=center;verticalAlign=top;childLayout=stackLayout;horizontal=1;startSize=26;horizontalStack=0;resizeParent=1;resizeParentMax=0;resizeLast=0;collapsible=1;marginBottom=0;" parent="1" vertex="1">
                    <mxGeometry x="220" y="810" width="160" height="86" as="geometry"/>
                </mxCell>
                <mxCell id="39" value="+ field: type" style="text;strokeColor=none;fillColor=none;align=left;verticalAlign=top;spacingLeft=4;spacingRight=4;overflow=hidden;rotatable=0;points=[[0,0.5],[1,0.5]];portConstraint=eastwest;" parent="38" vertex="1">
                    <mxGeometry y="26" width="160" height="26" as="geometry"/>
                </mxCell>
                <mxCell id="40" value="" style="line;strokeWidth=1;fillColor=none;align=left;verticalAlign=middle;spacingTop=-1;spacingLeft=3;spacingRight=3;rotatable=0;labelPosition=right;points=[];portConstraint=eastwest;" parent="38" vertex="1">
                    <mxGeometry y="52" width="160" height="8" as="geometry"/>
                </mxCell>
                <mxCell id="41" value="+ method(type): type" style="text;strokeColor=none;fillColor=none;align=left;verticalAlign=top;spacingLeft=4;spacingRight=4;overflow=hidden;rotatable=0;points=[[0,0.5],[1,0.5]];portConstraint=eastwest;" parent="38" vertex="1">
                    <mxGeometry y="60" width="160" height="26" as="geometry"/>
                </mxCell>
                <mxCell id="48" value="WorkInfo" style="swimlane;fontStyle=1;align=center;verticalAlign=top;childLayout=stackLayout;horizontal=1;startSize=26;horizontalStack=0;resizeParent=1;resizeParentMax=0;resizeLast=0;collapsible=1;marginBottom=0;" parent="1" vertex="1">
                    <mxGeometry x="10" y="570" width="290" height="144" as="geometry"/>
                </mxCell>
                <mxCell id="49" value="private @NonNull UUID mId;&#10;private @NonNull State mState;&#10;private @NonNull Data mOutputData;&#10;private @NonNull Set&lt;String&gt; mTags;&#10;private @NonNull Data mProgress;" style="text;strokeColor=none;fillColor=none;align=left;verticalAlign=top;spacingLeft=4;spacingRight=4;overflow=hidden;rotatable=0;points=[[0,0.5],[1,0.5]];portConstraint=eastwest;" parent="48" vertex="1">
                    <mxGeometry y="26" width="290" height="84" as="geometry"/>
                </mxCell>
                <mxCell id="50" value="" style="line;strokeWidth=1;fillColor=none;align=left;verticalAlign=middle;spacingTop=-1;spacingLeft=3;spacingRight=3;rotatable=0;labelPosition=right;points=[];portConstraint=eastwest;" parent="48" vertex="1">
                    <mxGeometry y="110" width="290" height="8" as="geometry"/>
                </mxCell>
                <mxCell id="51" value="+ method(type): type" style="text;strokeColor=none;fillColor=none;align=left;verticalAlign=top;spacingLeft=4;spacingRight=4;overflow=hidden;rotatable=0;points=[[0,0.5],[1,0.5]];portConstraint=eastwest;" parent="48" vertex="1">
                    <mxGeometry y="118" width="290" height="26" as="geometry"/>
                </mxCell>
                <mxCell id="34" value="WorkManager" style="swimlane;fontStyle=1;align=center;verticalAlign=top;childLayout=stackLayout;horizontal=1;startSize=26;horizontalStack=0;resizeParent=1;resizeParentMax=0;resizeLast=0;collapsible=1;marginBottom=0;" parent="1" vertex="1">
                    <mxGeometry x="360" y="620" width="450" height="86" as="geometry"/>
                </mxCell>
                <mxCell id="35" value="+ field: type" style="text;strokeColor=none;fillColor=none;align=left;verticalAlign=top;spacingLeft=4;spacingRight=4;overflow=hidden;rotatable=0;points=[[0,0.5],[1,0.5]];portConstraint=eastwest;" parent="34" vertex="1">
                    <mxGeometry y="26" width="450" height="26" as="geometry"/>
                </mxCell>
                <mxCell id="36" value="" style="line;strokeWidth=1;fillColor=none;align=left;verticalAlign=middle;spacingTop=-1;spacingLeft=3;spacingRight=3;rotatable=0;labelPosition=right;points=[];portConstraint=eastwest;" parent="34" vertex="1">
                    <mxGeometry y="52" width="450" height="8" as="geometry"/>
                </mxCell>
                <mxCell id="37" value="LiveData&lt;WorkInfo&gt; getWorkInfoByIdLiveData(@NonNull UUID id)" style="text;strokeColor=none;fillColor=none;align=left;verticalAlign=top;spacingLeft=4;spacingRight=4;overflow=hidden;rotatable=0;points=[[0,0.5],[1,0.5]];portConstraint=eastwest;" parent="34" vertex="1">
                    <mxGeometry y="60" width="450" height="26" as="geometry"/>
                </mxCell>
                <mxCell id="53" style="edgeStyle=orthogonalEdgeStyle;rounded=0;orthogonalLoop=1;jettySize=auto;html=1;exitX=1;exitY=0.5;exitDx=0;exitDy=0;entryX=0;entryY=0.5;entryDx=0;entryDy=0;dashed=1;" parent="1" source="49" target="37" edge="1">
                    <mxGeometry relative="1" as="geometry"/>
                </mxCell>
            </root>
        </mxGraphModel>
    </diagram>
    <diagram id="af6rHPtL0YagCau1j3DI" name="第 2 页">
        <mxGraphModel dx="1770" dy="535" grid="1" gridSize="10" guides="1" tooltips="1" connect="1" arrows="1" fold="1" page="1" pageScale="1" pageWidth="827" pageHeight="1169" math="0" shadow="0">
            <root>
                <mxCell id="FMfAo4_NDtvGD5kXseAp-0"/>
                <mxCell id="FMfAo4_NDtvGD5kXseAp-1" parent="FMfAo4_NDtvGD5kXseAp-0"/>
                <mxCell id="FMfAo4_NDtvGD5kXseAp-2" value="WorkManager" style="swimlane;fontStyle=1;align=center;verticalAlign=top;childLayout=stackLayout;horizontal=1;startSize=26;horizontalStack=0;resizeParent=1;resizeParentMax=0;resizeLast=0;collapsible=1;marginBottom=0;" parent="FMfAo4_NDtvGD5kXseAp-1" vertex="1">
                    <mxGeometry x="600" y="106" width="160" height="90" as="geometry"/>
                </mxCell>
                <mxCell id="FMfAo4_NDtvGD5kXseAp-4" value="" style="line;strokeWidth=1;fillColor=none;align=left;verticalAlign=middle;spacingTop=-1;spacingLeft=3;spacingRight=3;rotatable=0;labelPosition=right;points=[];portConstraint=eastwest;" parent="FMfAo4_NDtvGD5kXseAp-2" vertex="1">
                    <mxGeometry y="26" width="160" height="8" as="geometry"/>
                </mxCell>
                <mxCell id="FMfAo4_NDtvGD5kXseAp-5" value="enqueue&#10;getInstance（）&#10;initialize（）" style="text;strokeColor=none;fillColor=none;align=left;verticalAlign=top;spacingLeft=4;spacingRight=4;overflow=hidden;rotatable=0;points=[[0,0.5],[1,0.5]];portConstraint=eastwest;" parent="FMfAo4_NDtvGD5kXseAp-2" vertex="1">
                    <mxGeometry y="34" width="160" height="56" as="geometry"/>
                </mxCell>
                <mxCell id="FMfAo4_NDtvGD5kXseAp-52" style="edgeStyle=orthogonalEdgeStyle;rounded=0;orthogonalLoop=1;jettySize=auto;html=1;entryX=1;entryY=0.09;entryDx=0;entryDy=0;entryPerimeter=0;" parent="FMfAo4_NDtvGD5kXseAp-1" source="FMfAo4_NDtvGD5kXseAp-6" target="FMfAo4_NDtvGD5kXseAp-28" edge="1">
                    <mxGeometry relative="1" as="geometry">
                        <Array as="points">
                            <mxPoint x="340" y="330"/>
                            <mxPoint x="340" y="330"/>
                        </Array>
                    </mxGeometry>
                </mxCell>
                <mxCell id="FMfAo4_NDtvGD5kXseAp-53" value="hold" style="edgeLabel;html=1;align=center;verticalAlign=middle;resizable=0;points=[];" parent="FMfAo4_NDtvGD5kXseAp-52" vertex="1" connectable="0">
                    <mxGeometry x="-0.4375" y="3" relative="1" as="geometry">
                        <mxPoint as="offset"/>
                    </mxGeometry>
                </mxCell>
                <mxCell id="FMfAo4_NDtvGD5kXseAp-6" value="WorkManagerImpl" style="swimlane;fontStyle=1;align=center;verticalAlign=top;childLayout=stackLayout;horizontal=1;startSize=26;horizontalStack=0;resizeParent=1;resizeParentMax=0;resizeLast=0;collapsible=1;marginBottom=0;" parent="FMfAo4_NDtvGD5kXseAp-1" vertex="1">
                    <mxGeometry x="460" y="310" width="367" height="204" as="geometry"/>
                </mxCell>
                <mxCell id="FMfAo4_NDtvGD5kXseAp-7" value="mConfiguration：Configuration &#10;mWorkDatabase：WorkDatabase&#10; mWorkTaskExecutor：TaskExecutor&#10;mSchedulers：List&lt;Scheduler&gt; &#10; mProcessor：Processor&#10; mPreferenceUtils：PreferenceUtils&#10;mRescheduleReceiverResult：BroadcastReceiver.PendingResult&#10;sDelegatedInstance：WorkManagerImpl&#10;sDefaultInstance：WorkManagerImpl" style="text;strokeColor=none;fillColor=none;align=left;verticalAlign=top;spacingLeft=4;spacingRight=4;overflow=hidden;rotatable=0;points=[[0,0.5],[1,0.5]];portConstraint=eastwest;" parent="FMfAo4_NDtvGD5kXseAp-6" vertex="1">
                    <mxGeometry y="26" width="367" height="144" as="geometry"/>
                </mxCell>
                <mxCell id="FMfAo4_NDtvGD5kXseAp-8" value="" style="line;strokeWidth=1;fillColor=none;align=left;verticalAlign=middle;spacingTop=-1;spacingLeft=3;spacingRight=3;rotatable=0;labelPosition=right;points=[];portConstraint=eastwest;" parent="FMfAo4_NDtvGD5kXseAp-6" vertex="1">
                    <mxGeometry y="170" width="367" height="8" as="geometry"/>
                </mxCell>
                <mxCell id="FMfAo4_NDtvGD5kXseAp-9" value="+ method(type): type" style="text;strokeColor=none;fillColor=none;align=left;verticalAlign=top;spacingLeft=4;spacingRight=4;overflow=hidden;rotatable=0;points=[[0,0.5],[1,0.5]];portConstraint=eastwest;" parent="FMfAo4_NDtvGD5kXseAp-6" vertex="1">
                    <mxGeometry y="178" width="367" height="26" as="geometry"/>
                </mxCell>
                <mxCell id="FMfAo4_NDtvGD5kXseAp-10" value="BroadcastReceiver" style="swimlane;fontStyle=1;align=center;verticalAlign=top;childLayout=stackLayout;horizontal=1;startSize=26;horizontalStack=0;resizeParent=1;resizeParentMax=0;resizeLast=0;collapsible=1;marginBottom=0;" parent="FMfAo4_NDtvGD5kXseAp-1" vertex="1">
                    <mxGeometry x="50" y="130" width="230" height="86" as="geometry"/>
                </mxCell>
                <mxCell id="FMfAo4_NDtvGD5kXseAp-11" value="mPendingResult：PendingResult" style="text;strokeColor=none;fillColor=none;align=left;verticalAlign=top;spacingLeft=4;spacingRight=4;overflow=hidden;rotatable=0;points=[[0,0.5],[1,0.5]];portConstraint=eastwest;" parent="FMfAo4_NDtvGD5kXseAp-10" vertex="1">
                    <mxGeometry y="26" width="230" height="26" as="geometry"/>
                </mxCell>
                <mxCell id="FMfAo4_NDtvGD5kXseAp-12" value="" style="line;strokeWidth=1;fillColor=none;align=left;verticalAlign=middle;spacingTop=-1;spacingLeft=3;spacingRight=3;rotatable=0;labelPosition=right;points=[];portConstraint=eastwest;" parent="FMfAo4_NDtvGD5kXseAp-10" vertex="1">
                    <mxGeometry y="52" width="230" height="8" as="geometry"/>
                </mxCell>
                <mxCell id="FMfAo4_NDtvGD5kXseAp-13" value="onReceive(Context context, Intent intent)" style="text;strokeColor=none;fillColor=none;align=left;verticalAlign=top;spacingLeft=4;spacingRight=4;overflow=hidden;rotatable=0;points=[[0,0.5],[1,0.5]];portConstraint=eastwest;" parent="FMfAo4_NDtvGD5kXseAp-10" vertex="1">
                    <mxGeometry y="60" width="230" height="26" as="geometry"/>
                </mxCell>
                <mxCell id="FMfAo4_NDtvGD5kXseAp-14" value="BroadcastReceiver.PendingResult" style="swimlane;fontStyle=1;align=center;verticalAlign=top;childLayout=stackLayout;horizontal=1;startSize=26;horizontalStack=0;resizeParent=1;resizeParentMax=0;resizeLast=0;collapsible=1;marginBottom=0;" parent="FMfAo4_NDtvGD5kXseAp-1" vertex="1">
                    <mxGeometry x="50" y="20" width="270" height="86" as="geometry"/>
                </mxCell>
                <mxCell id="FMfAo4_NDtvGD5kXseAp-15" value="+ field: type" style="text;strokeColor=none;fillColor=none;align=left;verticalAlign=top;spacingLeft=4;spacingRight=4;overflow=hidden;rotatable=0;points=[[0,0.5],[1,0.5]];portConstraint=eastwest;" parent="FMfAo4_NDtvGD5kXseAp-14" vertex="1">
                    <mxGeometry y="26" width="270" height="26" as="geometry"/>
                </mxCell>
                <mxCell id="FMfAo4_NDtvGD5kXseAp-16" value="" style="line;strokeWidth=1;fillColor=none;align=left;verticalAlign=middle;spacingTop=-1;spacingLeft=3;spacingRight=3;rotatable=0;labelPosition=right;points=[];portConstraint=eastwest;" parent="FMfAo4_NDtvGD5kXseAp-14" vertex="1">
                    <mxGeometry y="52" width="270" height="8" as="geometry"/>
                </mxCell>
                <mxCell id="FMfAo4_NDtvGD5kXseAp-17" value="+ method(type): type" style="text;strokeColor=none;fillColor=none;align=left;verticalAlign=top;spacingLeft=4;spacingRight=4;overflow=hidden;rotatable=0;points=[[0,0.5],[1,0.5]];portConstraint=eastwest;" parent="FMfAo4_NDtvGD5kXseAp-14" vertex="1">
                    <mxGeometry y="60" width="270" height="26" as="geometry"/>
                </mxCell>
                <mxCell id="FMfAo4_NDtvGD5kXseAp-18" value="Extends" style="endArrow=block;endSize=16;endFill=0;html=1;entryX=0.575;entryY=1.054;entryDx=0;entryDy=0;entryPerimeter=0;exitX=0.638;exitY=-0.02;exitDx=0;exitDy=0;exitPerimeter=0;" parent="FMfAo4_NDtvGD5kXseAp-1" source="FMfAo4_NDtvGD5kXseAp-6" target="FMfAo4_NDtvGD5kXseAp-5" edge="1">
                    <mxGeometry width="160" relative="1" as="geometry">
                        <mxPoint x="370" y="270" as="sourcePoint"/>
                        <mxPoint x="530" y="270" as="targetPoint"/>
                    </mxGeometry>
                </mxCell>
                <mxCell id="FMfAo4_NDtvGD5kXseAp-19" value="Configuration" style="swimlane;fontStyle=1;align=center;verticalAlign=top;childLayout=stackLayout;horizontal=1;startSize=26;horizontalStack=0;resizeParent=1;resizeParentMax=0;resizeLast=0;collapsible=1;marginBottom=0;" parent="FMfAo4_NDtvGD5kXseAp-1" vertex="1">
                    <mxGeometry x="70" y="890" width="290" height="210" as="geometry"/>
                </mxCell>
                <mxCell id="FMfAo4_NDtvGD5kXseAp-20" value="mExecutor:Executor&#10;mTaskExecutor:Executor&#10;mWorkerFactory:WorkFactory&#10;mInputMergerFactory:InputMergerFactory&#10;mRunnableScheduler:RunnableScheduler" style="text;strokeColor=none;fillColor=none;align=left;verticalAlign=top;spacingLeft=4;spacingRight=4;overflow=hidden;rotatable=0;points=[[0,0.5],[1,0.5]];portConstraint=eastwest;" parent="FMfAo4_NDtvGD5kXseAp-19" vertex="1">
                    <mxGeometry y="26" width="290" height="84" as="geometry"/>
                </mxCell>
                <mxCell id="FMfAo4_NDtvGD5kXseAp-21" value="" style="line;strokeWidth=1;fillColor=none;align=left;verticalAlign=middle;spacingTop=-1;spacingLeft=3;spacingRight=3;rotatable=0;labelPosition=right;points=[];portConstraint=eastwest;" parent="FMfAo4_NDtvGD5kXseAp-19" vertex="1">
                    <mxGeometry y="110" width="290" height="8" as="geometry"/>
                </mxCell>
                <mxCell id="FMfAo4_NDtvGD5kXseAp-22" value="createDefaultExecutor()&#10;build()&#10;&#10;public interface Provider { Configuration&#10; getWorkManagerConfiguration();&#10;}" style="text;strokeColor=none;fillColor=none;align=left;verticalAlign=top;spacingLeft=4;spacingRight=4;overflow=hidden;rotatable=0;points=[[0,0.5],[1,0.5]];portConstraint=eastwest;" parent="FMfAo4_NDtvGD5kXseAp-19" vertex="1">
                    <mxGeometry y="118" width="290" height="92" as="geometry"/>
                </mxCell>
                <mxCell id="FMfAo4_NDtvGD5kXseAp-23" value="WorkManagerTaskExecutor" style="swimlane;fontStyle=1;align=center;verticalAlign=top;childLayout=stackLayout;horizontal=1;startSize=26;horizontalStack=0;resizeParent=1;resizeParentMax=0;resizeLast=0;collapsible=1;marginBottom=0;" parent="FMfAo4_NDtvGD5kXseAp-1" vertex="1">
                    <mxGeometry x="-340" y="130" width="290" height="120" as="geometry"/>
                </mxCell>
                <mxCell id="FMfAo4_NDtvGD5kXseAp-24" value="mBackgroundExecutor:SerialExecutor" style="text;strokeColor=none;fillColor=none;align=left;verticalAlign=top;spacingLeft=4;spacingRight=4;overflow=hidden;rotatable=0;points=[[0,0.5],[1,0.5]];portConstraint=eastwest;" parent="FMfAo4_NDtvGD5kXseAp-23" vertex="1">
                    <mxGeometry y="26" width="290" height="26" as="geometry"/>
                </mxCell>
                <mxCell id="FMfAo4_NDtvGD5kXseAp-25" value="" style="line;strokeWidth=1;fillColor=none;align=left;verticalAlign=middle;spacingTop=-1;spacingLeft=3;spacingRight=3;rotatable=0;labelPosition=right;points=[];portConstraint=eastwest;" parent="FMfAo4_NDtvGD5kXseAp-23" vertex="1">
                    <mxGeometry y="52" width="290" height="8" as="geometry"/>
                </mxCell>
                <mxCell id="FMfAo4_NDtvGD5kXseAp-26" value="postToMainThread(Runnable r)&#10;&#10;executeOnBackgroundThread(Runnable r)" style="text;strokeColor=none;fillColor=none;align=left;verticalAlign=top;spacingLeft=4;spacingRight=4;overflow=hidden;rotatable=0;points=[[0,0.5],[1,0.5]];portConstraint=eastwest;" parent="FMfAo4_NDtvGD5kXseAp-23" vertex="1">
                    <mxGeometry y="60" width="290" height="60" as="geometry"/>
                </mxCell>
                <mxCell id="FMfAo4_NDtvGD5kXseAp-28" value="&lt;p style=&quot;margin: 0px ; margin-top: 4px ; text-align: center&quot;&gt;&lt;i&gt;&amp;lt;&amp;lt;Interface&amp;gt;&amp;gt;&lt;/i&gt;&lt;/p&gt;&lt;p style=&quot;margin: 0px ; margin-top: 4px ; text-align: center&quot;&gt;&lt;span style=&quot;background-color: rgb(43 , 43 , 43) ; color: rgb(169 , 183 , 198) ; font-family: &amp;#34;menlo&amp;#34; , monospace ; font-size: 13.5pt&quot;&gt;TaskExecutor&lt;/span&gt;&lt;/p&gt;&lt;hr size=&quot;1&quot;&gt;&lt;p style=&quot;margin: 0px ; margin-left: 4px&quot;&gt;&lt;/p&gt;&lt;p style=&quot;margin: 0px ; margin-left: 4px&quot;&gt;&lt;span style=&quot;font-family: &amp;#34;menlo&amp;#34; , monospace ; font-size: 13.5pt ; color: rgb(255 , 198 , 109)&quot;&gt;postToMainThread&lt;/span&gt;&lt;span style=&quot;background-color: rgb(43 , 43 , 43) ; color: rgb(169 , 183 , 198) ; font-family: &amp;#34;menlo&amp;#34; , monospace ; font-size: 13.5pt&quot;&gt;(Runnable runnable)&lt;/span&gt;&lt;/p&gt;&lt;p style=&quot;margin: 0px ; margin-left: 4px&quot;&gt;&lt;span style=&quot;font-family: &amp;#34;menlo&amp;#34; , monospace ; font-size: 13.5pt ; color: rgb(255 , 198 , 109)&quot;&gt;executeOnBackgroundThread&lt;/span&gt;&lt;span style=&quot;background-color: rgb(43 , 43 , 43) ; color: rgb(169 , 183 , 198) ; font-family: &amp;#34;menlo&amp;#34; , monospace ; font-size: 13.5pt&quot;&gt;(Runnable runnable)&lt;/span&gt;&lt;/p&gt;&lt;p style=&quot;margin: 0px ; margin-left: 4px&quot;&gt;&lt;span style=&quot;background-color: rgb(43 , 43 , 43) ; color: rgb(169 , 183 , 198) ; font-family: &amp;#34;menlo&amp;#34; , monospace ; font-size: 13.5pt&quot;&gt;SerialExecutor &lt;/span&gt;&lt;span style=&quot;font-family: &amp;#34;menlo&amp;#34; , monospace ; font-size: 13.5pt ; color: rgb(255 , 198 , 109)&quot;&gt;getBackgroundExecutor&lt;/span&gt;&lt;span style=&quot;background-color: rgb(43 , 43 , 43) ; color: rgb(169 , 183 , 198) ; font-family: &amp;#34;menlo&amp;#34; , monospace ; font-size: 13.5pt&quot;&gt;()&lt;/span&gt;&lt;/p&gt;&lt;p style=&quot;margin: 0px ; margin-left: 4px&quot;&gt;&lt;span style=&quot;background-color: rgb(43 , 43 , 43) ; color: rgb(169 , 183 , 198) ; font-family: &amp;#34;menlo&amp;#34; , monospace ; font-size: 13.5pt&quot;&gt;Executor &lt;/span&gt;&lt;span style=&quot;font-family: &amp;#34;menlo&amp;#34; , monospace ; font-size: 13.5pt ; color: rgb(255 , 198 , 109)&quot;&gt;getMainThreadExecutor&lt;/span&gt;&lt;span style=&quot;background-color: rgb(43 , 43 , 43) ; color: rgb(169 , 183 , 198) ; font-family: &amp;#34;menlo&amp;#34; , monospace ; font-size: 13.5pt&quot;&gt;()&lt;/span&gt;&lt;/p&gt;" style="verticalAlign=top;align=left;overflow=fill;fontSize=12;fontFamily=Helvetica;html=1;" parent="FMfAo4_NDtvGD5kXseAp-1" vertex="1">
                    <mxGeometry x="-570" y="312" width="550" height="200" as="geometry"/>
                </mxCell>
                <mxCell id="FMfAo4_NDtvGD5kXseAp-29" value="WorkDatabase" style="swimlane;fontStyle=1;align=center;verticalAlign=top;childLayout=stackLayout;horizontal=1;startSize=26;horizontalStack=0;resizeParent=1;resizeParentMax=0;resizeLast=0;collapsible=1;marginBottom=0;" parent="FMfAo4_NDtvGD5kXseAp-1" vertex="1">
                    <mxGeometry x="120" y="360" width="160" height="130" as="geometry"/>
                </mxCell>
                <mxCell id="FMfAo4_NDtvGD5kXseAp-30" value="+ field: type" style="text;strokeColor=none;fillColor=none;align=left;verticalAlign=top;spacingLeft=4;spacingRight=4;overflow=hidden;rotatable=0;points=[[0,0.5],[1,0.5]];portConstraint=eastwest;" parent="FMfAo4_NDtvGD5kXseAp-29" vertex="1">
                    <mxGeometry y="26" width="160" height="26" as="geometry"/>
                </mxCell>
                <mxCell id="FMfAo4_NDtvGD5kXseAp-31" value="" style="line;strokeWidth=1;fillColor=none;align=left;verticalAlign=middle;spacingTop=-1;spacingLeft=3;spacingRight=3;rotatable=0;labelPosition=right;points=[];portConstraint=eastwest;" parent="FMfAo4_NDtvGD5kXseAp-29" vertex="1">
                    <mxGeometry y="52" width="160" height="8" as="geometry"/>
                </mxCell>
                <mxCell id="FMfAo4_NDtvGD5kXseAp-32" value="create(&#10;final Context context,&#10;Executor queryExecutor,&#10;        boolean useTestDatabase) " style="text;strokeColor=none;fillColor=none;align=left;verticalAlign=top;spacingLeft=4;spacingRight=4;overflow=hidden;rotatable=0;points=[[0,0.5],[1,0.5]];portConstraint=eastwest;" parent="FMfAo4_NDtvGD5kXseAp-29" vertex="1">
                    <mxGeometry y="60" width="160" height="70" as="geometry"/>
                </mxCell>
                <mxCell id="FMfAo4_NDtvGD5kXseAp-47" style="edgeStyle=orthogonalEdgeStyle;rounded=0;orthogonalLoop=1;jettySize=auto;html=1;entryX=1;entryY=0.75;entryDx=0;entryDy=0;" parent="FMfAo4_NDtvGD5kXseAp-1" source="FMfAo4_NDtvGD5kXseAp-33" target="FMfAo4_NDtvGD5kXseAp-28" edge="1">
                    <mxGeometry relative="1" as="geometry">
                        <Array as="points">
                            <mxPoint x="185" y="560"/>
                            <mxPoint x="25" y="560"/>
                            <mxPoint x="25" y="462"/>
                        </Array>
                    </mxGeometry>
                </mxCell>
                <mxCell id="FMfAo4_NDtvGD5kXseAp-48" value="hold" style="edgeLabel;html=1;align=center;verticalAlign=middle;resizable=0;points=[];" parent="FMfAo4_NDtvGD5kXseAp-47" vertex="1" connectable="0">
                    <mxGeometry x="0.2012" y="-3" relative="1" as="geometry">
                        <mxPoint as="offset"/>
                    </mxGeometry>
                </mxCell>
                <mxCell id="FMfAo4_NDtvGD5kXseAp-33" value="Processor" style="swimlane;fontStyle=1;align=center;verticalAlign=top;childLayout=stackLayout;horizontal=1;startSize=26;horizontalStack=0;resizeParent=1;resizeParentMax=0;resizeLast=0;collapsible=1;marginBottom=0;" parent="FMfAo4_NDtvGD5kXseAp-1" vertex="1">
                    <mxGeometry x="30" y="580" width="310" height="250" as="geometry"/>
                </mxCell>
                <mxCell id="FMfAo4_NDtvGD5kXseAp-34" value="mConfiguration:Configuration&#10;mWorkTaskExecutor:TaskExecutor&#10;mWorkDatabase:WorkDatabase&#10;mForegroundWorkMap:Map&lt;String, WorkerWrapper&gt;&#10;mEnqueuedWorkMap:Map&lt;String, WorkerWrapper&gt;&#10;mSchedulers:List&lt;Scheduler&gt;&#10;mOuterListeners:List&lt;ExecutionListener&gt;" style="text;strokeColor=none;fillColor=none;align=left;verticalAlign=top;spacingLeft=4;spacingRight=4;overflow=hidden;rotatable=0;points=[[0,0.5],[1,0.5]];portConstraint=eastwest;" parent="FMfAo4_NDtvGD5kXseAp-33" vertex="1">
                    <mxGeometry y="26" width="310" height="114" as="geometry"/>
                </mxCell>
                <mxCell id="FMfAo4_NDtvGD5kXseAp-35" value="" style="line;strokeWidth=1;fillColor=none;align=left;verticalAlign=middle;spacingTop=-1;spacingLeft=3;spacingRight=3;rotatable=0;labelPosition=right;points=[];portConstraint=eastwest;" parent="FMfAo4_NDtvGD5kXseAp-33" vertex="1">
                    <mxGeometry y="140" width="310" height="8" as="geometry"/>
                </mxCell>
                <mxCell id="FMfAo4_NDtvGD5kXseAp-36" value="onExecuted&#10;startWork&#10;stopWork&#10;startForeground&#10;stopForegroundWork" style="text;strokeColor=none;fillColor=none;align=left;verticalAlign=top;spacingLeft=4;spacingRight=4;overflow=hidden;rotatable=0;points=[[0,0.5],[1,0.5]];portConstraint=eastwest;" parent="FMfAo4_NDtvGD5kXseAp-33" vertex="1">
                    <mxGeometry y="148" width="310" height="102" as="geometry"/>
                </mxCell>
                <mxCell id="FMfAo4_NDtvGD5kXseAp-37" value="&lt;p style=&quot;margin: 0px ; margin-top: 4px ; text-align: center&quot;&gt;&lt;i&gt;&amp;lt;&amp;lt;Interface&amp;gt;&amp;gt;&lt;/i&gt;&lt;/p&gt;&lt;p style=&quot;margin: 0px ; margin-top: 4px ; text-align: center&quot;&gt;&lt;span style=&quot;background-color: rgb(43 , 43 , 43) ; color: rgb(169 , 183 , 198) ; font-family: &amp;#34;menlo&amp;#34; , monospace ; font-size: 13.5pt ; text-align: left&quot;&gt;ExecutionListener&lt;/span&gt;&lt;/p&gt;&lt;hr size=&quot;1&quot;&gt;&lt;pre style=&quot;background-color: #2b2b2b ; color: #a9b7c6 ; font-family: &amp;#34;menlo&amp;#34; , monospace ; font-size: 13.5pt&quot;&gt;&lt;span style=&quot;color: #ffc66d&quot;&gt;onExecuted&lt;/span&gt;(String workSpecId&lt;span style=&quot;color: #cc7832&quot;&gt;, boolean &lt;/span&gt;needsReschedule)&lt;/pre&gt;" style="verticalAlign=top;align=left;overflow=fill;fontSize=12;fontFamily=Helvetica;html=1;" parent="FMfAo4_NDtvGD5kXseAp-1" vertex="1">
                    <mxGeometry x="-680" y="580" width="620" height="93" as="geometry"/>
                </mxCell>
                <mxCell id="FMfAo4_NDtvGD5kXseAp-38" value="Extends" style="endArrow=block;endSize=16;endFill=0;html=1;entryX=1;entryY=0.25;entryDx=0;entryDy=0;exitX=0;exitY=0.25;exitDx=0;exitDy=0;" parent="FMfAo4_NDtvGD5kXseAp-1" source="FMfAo4_NDtvGD5kXseAp-33" target="FMfAo4_NDtvGD5kXseAp-37" edge="1">
                    <mxGeometry width="160" relative="1" as="geometry">
                        <mxPoint x="-340" y="610" as="sourcePoint"/>
                        <mxPoint x="-180" y="610" as="targetPoint"/>
                    </mxGeometry>
                </mxCell>
                <mxCell id="FMfAo4_NDtvGD5kXseAp-39" value="&lt;p style=&quot;margin: 0px ; margin-top: 4px ; text-align: center&quot;&gt;&lt;i&gt;&amp;lt;&amp;lt;Interface&amp;gt;&amp;gt;&lt;/i&gt;&lt;/p&gt;&lt;p style=&quot;margin: 0px ; margin-top: 4px ; text-align: center&quot;&gt;&lt;span style=&quot;background-color: rgb(43 , 43 , 43) ; color: rgb(169 , 183 , 198) ; font-family: &amp;#34;menlo&amp;#34; , monospace ; font-size: 13.5pt ; text-align: left&quot;&gt;ForegroundProcessor&lt;/span&gt;&lt;/p&gt;&lt;hr size=&quot;1&quot;&gt;&lt;pre style=&quot;background-color: #2b2b2b ; color: #a9b7c6 ; font-family: &amp;#34;menlo&amp;#34; , monospace ; font-size: 13.5pt&quot;&gt;&lt;pre style=&quot;font-family: &amp;#34;menlo&amp;#34; , monospace ; font-size: 13.5pt&quot;&gt;&lt;span style=&quot;color: #cc7832&quot;&gt;void &lt;/span&gt;&lt;span style=&quot;color: #ffc66d&quot;&gt;startForeground(&lt;/span&gt;String workSpecId&lt;span style=&quot;color: #cc7832&quot;&gt;,&lt;/span&gt;ForegroundInfo foregroundInfo)&lt;/pre&gt;&lt;pre style=&quot;font-family: &amp;#34;menlo&amp;#34; , monospace ; font-size: 13.5pt&quot;&gt;&lt;pre style=&quot;font-family: &amp;#34;menlo&amp;#34; , monospace ; font-size: 13.5pt&quot;&gt;&lt;span style=&quot;color: #cc7832&quot;&gt;void &lt;/span&gt;&lt;span style=&quot;color: #ffc66d&quot;&gt;stopForeground&lt;/span&gt;(&lt;span style=&quot;color: #bbb529&quot;&gt;@NonNull &lt;/span&gt;String workSpecId)&lt;/pre&gt;&lt;/pre&gt;&lt;/pre&gt;" style="verticalAlign=top;align=left;overflow=fill;fontSize=12;fontFamily=Helvetica;html=1;" parent="FMfAo4_NDtvGD5kXseAp-1" vertex="1">
                    <mxGeometry x="-820" y="690" width="760" height="150" as="geometry"/>
                </mxCell>
                <mxCell id="FMfAo4_NDtvGD5kXseAp-40" value="Extends" style="endArrow=block;endSize=16;endFill=0;html=1;entryX=1;entryY=0.25;entryDx=0;entryDy=0;exitX=0;exitY=0.5;exitDx=0;exitDy=0;" parent="FMfAo4_NDtvGD5kXseAp-1" source="FMfAo4_NDtvGD5kXseAp-36" target="FMfAo4_NDtvGD5kXseAp-39" edge="1">
                    <mxGeometry width="160" relative="1" as="geometry">
                        <mxPoint x="-360" y="610" as="sourcePoint"/>
                        <mxPoint x="-200" y="610" as="targetPoint"/>
                        <Array as="points">
                            <mxPoint x="10" y="728"/>
                        </Array>
                    </mxGeometry>
                </mxCell>
                <mxCell id="FMfAo4_NDtvGD5kXseAp-41" style="edgeStyle=orthogonalEdgeStyle;rounded=0;orthogonalLoop=1;jettySize=auto;html=1;entryX=1.003;entryY=0.869;entryDx=0;entryDy=0;entryPerimeter=0;" parent="FMfAo4_NDtvGD5kXseAp-1" source="FMfAo4_NDtvGD5kXseAp-34" target="FMfAo4_NDtvGD5kXseAp-20" edge="1">
                    <mxGeometry relative="1" as="geometry"/>
                </mxCell>
                <mxCell id="FMfAo4_NDtvGD5kXseAp-42" value="hold" style="edgeLabel;html=1;align=center;verticalAlign=middle;resizable=0;points=[];" parent="FMfAo4_NDtvGD5kXseAp-41" vertex="1" connectable="0">
                    <mxGeometry x="-0.1798" relative="1" as="geometry">
                        <mxPoint as="offset"/>
                    </mxGeometry>
                </mxCell>
                <mxCell id="FMfAo4_NDtvGD5kXseAp-43" style="edgeStyle=orthogonalEdgeStyle;rounded=0;orthogonalLoop=1;jettySize=auto;html=1;entryX=1;entryY=0.5;entryDx=0;entryDy=0;" parent="FMfAo4_NDtvGD5kXseAp-1" source="FMfAo4_NDtvGD5kXseAp-7" target="FMfAo4_NDtvGD5kXseAp-22" edge="1">
                    <mxGeometry relative="1" as="geometry">
                        <mxPoint x="390" y="880" as="targetPoint"/>
                        <Array as="points">
                            <mxPoint x="430" y="408"/>
                            <mxPoint x="430" y="1054"/>
                        </Array>
                    </mxGeometry>
                </mxCell>
                <mxCell id="FMfAo4_NDtvGD5kXseAp-44" value="hold" style="edgeLabel;html=1;align=center;verticalAlign=middle;resizable=0;points=[];" parent="FMfAo4_NDtvGD5kXseAp-43" vertex="1" connectable="0">
                    <mxGeometry x="-0.3628" y="2" relative="1" as="geometry">
                        <mxPoint y="1" as="offset"/>
                    </mxGeometry>
                </mxCell>
                <mxCell id="FMfAo4_NDtvGD5kXseAp-45" style="edgeStyle=orthogonalEdgeStyle;rounded=0;orthogonalLoop=1;jettySize=auto;html=1;entryX=1;entryY=0.25;entryDx=0;entryDy=0;" parent="FMfAo4_NDtvGD5kXseAp-1" source="FMfAo4_NDtvGD5kXseAp-7" target="FMfAo4_NDtvGD5kXseAp-33" edge="1">
                    <mxGeometry relative="1" as="geometry"/>
                </mxCell>
                <mxCell id="FMfAo4_NDtvGD5kXseAp-46" value="hold" style="edgeLabel;html=1;align=center;verticalAlign=middle;resizable=0;points=[];" parent="FMfAo4_NDtvGD5kXseAp-45" vertex="1" connectable="0">
                    <mxGeometry x="0.2255" y="1" relative="1" as="geometry">
                        <mxPoint as="offset"/>
                    </mxGeometry>
                </mxCell>
                <mxCell id="FMfAo4_NDtvGD5kXseAp-49" value="&lt;p style=&quot;margin: 0px ; margin-top: 4px ; text-align: center&quot;&gt;&lt;i&gt;&amp;lt;&amp;lt;Interface&amp;gt;&amp;gt;&lt;/i&gt;&lt;/p&gt;&lt;p style=&quot;margin: 0px ; margin-top: 4px ; text-align: center&quot;&gt;&lt;span style=&quot;background-color: rgb(43 , 43 , 43) ; color: rgb(169 , 183 , 198) ; font-family: &amp;#34;menlo&amp;#34; , monospace ; font-size: 13.5pt ; text-align: left&quot;&gt;Scheduler&lt;/span&gt;&lt;/p&gt;&lt;hr size=&quot;1&quot;&gt;&lt;pre style=&quot;background-color: #2b2b2b ; color: #a9b7c6 ; font-family: &amp;#34;menlo&amp;#34; , monospace ; font-size: 13.5pt&quot;&gt;&lt;pre style=&quot;font-family: &amp;#34;menlo&amp;#34; , monospace ; font-size: 13.5pt&quot;&gt;void &lt;span style=&quot;font-family: &amp;#34;menlo&amp;#34; , monospace ; font-size: 13.5pt ; color: rgb(255 , 198 , 109)&quot;&gt;schedule&lt;/span&gt;&lt;span style=&quot;font-family: &amp;#34;menlo&amp;#34; , monospace ; font-size: 13.5pt&quot;&gt;(&lt;/span&gt;&lt;span style=&quot;font-family: &amp;#34;menlo&amp;#34; , monospace ; font-size: 13.5pt ; color: rgb(187 , 181 , 41)&quot;&gt;@NonNull &lt;/span&gt;&lt;span style=&quot;font-family: &amp;#34;menlo&amp;#34; , monospace ; font-size: 13.5pt&quot;&gt;WorkSpec... workSpecs)&lt;/span&gt;&lt;/pre&gt;&lt;pre style=&quot;font-family: &amp;#34;menlo&amp;#34; , monospace ; font-size: 13.5pt&quot;&gt;void &lt;span style=&quot;font-size: 13.5pt ; white-space: nowrap ; color: rgb(255 , 198 , 109)&quot;&gt;cancel&lt;/span&gt;&lt;span style=&quot;font-size: 13.5pt ; white-space: nowrap&quot;&gt;(&lt;/span&gt;&lt;span style=&quot;font-size: 13.5pt ; white-space: nowrap ; color: rgb(187 , 181 , 41)&quot;&gt;@NonNull &lt;/span&gt;&lt;span style=&quot;font-size: 13.5pt ; white-space: nowrap&quot;&gt;String workSpecId)&lt;/span&gt;&lt;/pre&gt;&lt;/pre&gt;" style="verticalAlign=top;align=left;overflow=fill;fontSize=12;fontFamily=Helvetica;html=1;" parent="FMfAo4_NDtvGD5kXseAp-1" vertex="1">
                    <mxGeometry x="-610" y="860" width="560" height="140" as="geometry"/>
                </mxCell>
                <mxCell id="FMfAo4_NDtvGD5kXseAp-50" style="edgeStyle=orthogonalEdgeStyle;rounded=0;orthogonalLoop=1;jettySize=auto;html=1;entryX=1;entryY=0.5;entryDx=0;entryDy=0;exitX=0.448;exitY=1;exitDx=0;exitDy=0;exitPerimeter=0;" parent="FMfAo4_NDtvGD5kXseAp-1" source="FMfAo4_NDtvGD5kXseAp-36" target="FMfAo4_NDtvGD5kXseAp-49" edge="1">
                    <mxGeometry relative="1" as="geometry">
                        <Array as="points">
                            <mxPoint x="169" y="880"/>
                            <mxPoint x="-10" y="880"/>
                            <mxPoint x="-10" y="930"/>
                        </Array>
                    </mxGeometry>
                </mxCell>
                <mxCell id="FMfAo4_NDtvGD5kXseAp-51" value="hold" style="edgeLabel;html=1;align=center;verticalAlign=middle;resizable=0;points=[];" parent="FMfAo4_NDtvGD5kXseAp-50" vertex="1" connectable="0">
                    <mxGeometry x="0.3696" y="3" relative="1" as="geometry">
                        <mxPoint as="offset"/>
                    </mxGeometry>
                </mxCell>
                <mxCell id="FMfAo4_NDtvGD5kXseAp-55" value="" style="endArrow=block;dashed=1;endFill=0;endSize=12;html=1;exitX=0.462;exitY=1.033;exitDx=0;exitDy=0;exitPerimeter=0;entryX=0.5;entryY=0;entryDx=0;entryDy=0;" parent="FMfAo4_NDtvGD5kXseAp-1" source="FMfAo4_NDtvGD5kXseAp-26" target="FMfAo4_NDtvGD5kXseAp-28" edge="1">
                    <mxGeometry width="160" relative="1" as="geometry">
                        <mxPoint x="-60" y="320" as="sourcePoint"/>
                        <mxPoint x="100" y="320" as="targetPoint"/>
                    </mxGeometry>
                </mxCell>
            </root>
        </mxGraphModel>
    </diagram>
</mxfile>